# xmcd
#
# Track frame offsets:
#	150
#	17588
#	34848
#	53889
#	69794
#	86029
#	101671
#	125199
#	145050
#	155793
#	174026
#	188917
#	205706
#	217296
#	230163
#	247782
#
# Disc length: 3580 seconds
#
# Revision: 2
# Processed by: cddbd v1.5.2PL0 Copyright (c) Steve Scherf et al.
# Submitted via: EasyCDDAExtractor 11.5.0.1
#
DISCID=e10dfa10
DTITLE=Various Artist - NCT 030
DYEAR=2001
DGENRE=Country
TTITLE0=Lonestar - With Me
TTITLE1=Aaron Tippin - Where The Stars And Stripes And The Eagle Fly
TTITLE2=Faith Hill - There Will Come A Day
TTITLE3=Clint Black ft. Lisa Hartman - Easy For Me To Say
TTITLE4=Wild Horses - I Will Survive
TTITLE5=The Charlie Daniels Band - In America
TTITLE6=Chris Thile - Big Sam Thompson
TTITLE7=Andy Scheinman - Slow Down
TTITLE8=Faith Hill - Star Spangled Banner
TTITLE9=Darryl Purpose - Late For Dinner
TTITLE10=Valerie de la Cruz - That's Why I Like Your Love
TTITLE11=Billy Gilman - Elisabeth
TTITLE12=Patty Loveless - The Boys Are Back In Town
TTITLE13=Irene Kelley - A Little Bluer Than That
TTITLE14=Daisy Dern - Gettin' Back To You
TTITLE15=Mike Walker - Stones In The Road
EXTD=
EXTT0=
EXTT1=
EXTT2=
EXTT3=
EXTT4=
EXTT5=
EXTT6=
EXTT7=
EXTT8=
EXTT9=
EXTT10=
EXTT11=
EXTT12=
EXTT13=
EXTT14=
EXTT15=
PLAYORDER=
